<?xml version="1.0" encoding="UTF-8"?>
<svg id="Layer_1" data-name="Layer 1" xmlns="http://www.w3.org/2000/svg" viewBox="0 0 969.4 288.96">
  <defs>
    <style>
      .cls-1 {
        fill: #fff;
      }
    </style>
  </defs>
  <polygon class="cls-1" points="60.64 150.86 109.84 150.86 109.84 126.71 60.64 126.71 60.64 45.82 121.31 45.82 121.31 20.47 26.54 20.47 26.54 264.95 121.91 264.95 121.91 240.5 60.64 240.5 60.64 150.86"/>
  <polygon class="cls-1" points="581.28 20.47 537.82 218.77 494.66 20.47 461.16 20.47 456.92 249.24 382.12 35.78 380.68 32.82 399.82 22.62 326.43 22.62 347.39 32.49 345.87 35.55 270.41 250.85 270.41 20.47 242.04 20.47 242.04 182.85 172.62 20.47 149.38 20.47 149.38 264.95 178.36 264.95 178.36 98.04 246.81 260.51 221.91 268.49 312.97 268.49 294.1 258.66 295.21 255.54 351.97 83.87 351.97 268.49 375.92 268.49 375.92 83.87 432.62 255.29 433.71 258.45 414.93 268.49 505.99 268.49 484.45 261.59 487.12 87.47 528.16 264.95 547.48 264.95 588.83 87.47 591.55 264.95 619.01 264.95 614.48 20.47 581.28 20.47"/>
  <path class="cls-1" d="m752.11,184.06c0,10.46-.71,20.02-2.11,28.67-1.41,8.65-4.43,15.5-9.05,20.53-4.63,5.03-11.77,7.55-21.43,7.55s-16.55-2.51-21.28-7.55c-4.73-5.03-7.8-11.87-9.21-20.53-1.41-8.65-2.11-18.21-2.11-28.67V20.47h-32.6v162.08c0,17.1,1.71,32.05,5.13,44.82,3.42,12.78,9.86,22.69,19.32,29.73,9.45,7.05,23.04,10.56,40.75,10.56s31.24-3.52,40.59-10.56c9.36-7.04,15.74-16.95,19.17-29.73,3.42-12.78,5.13-27.72,5.13-44.82V20.47h-32.3v163.59Z"/>
  <polygon class="cls-1" points="889.14 139.69 940.45 20.47 908.76 20.47 874.95 106.79 837.83 20.47 806.14 20.47 856.24 136.97 805.23 264.95 836.93 264.95 871.33 172.89 911.17 264.95 942.87 264.95 889.14 139.69"/>
</svg>