<?xml version="1.0" encoding="UTF-8"?>
<svg id="Layer_1" data-name="Layer 1" xmlns="http://www.w3.org/2000/svg" viewBox="0 0 956.57 296.04">
  <defs>
    <style>
      .cls-1 {
        fill: #1a2b45;
      }
    </style>
  </defs>
  <polygon class="cls-1" points="54.23 154.4 103.42 154.4 103.42 130.25 54.23 130.25 54.23 49.36 114.89 49.36 114.89 24.01 20.12 24.01 20.12 268.49 115.5 268.49 115.5 244.04 54.23 244.04 54.23 154.4"/>
  <polygon class="cls-1" points="574.87 24.01 531.4 222.31 488.24 24.01 454.74 24.01 450.5 252.78 375.7 39.32 374.26 36.37 393.4 26.16 320.01 26.16 340.97 36.03 339.45 39.09 263.99 254.4 263.99 24.01 235.62 24.01 235.62 186.39 166.2 24.01 142.96 24.01 142.96 268.49 171.94 268.49 171.94 101.58 240.39 264.06 215.49 272.03 306.55 272.03 287.68 262.2 288.79 259.08 345.56 87.42 345.56 272.03 369.51 272.03 369.51 87.42 426.2 258.84 427.29 262 408.51 272.03 499.57 272.03 478.03 265.13 480.7 91.02 521.75 268.49 541.06 268.49 582.41 91.02 585.13 268.49 612.59 268.49 608.07 24.01 574.87 24.01"/>
  <path class="cls-1" d="m745.7,187.6c0,10.46-.71,20.02-2.11,28.67-1.41,8.65-4.43,15.5-9.05,20.53-4.63,5.03-11.77,7.55-21.43,7.55s-16.55-2.51-21.28-7.55c-4.73-5.03-7.8-11.87-9.21-20.53-1.41-8.65-2.11-18.21-2.11-28.67V24.01h-32.6v162.08c0,17.1,1.71,32.05,5.13,44.82,3.42,12.78,9.86,22.69,19.32,29.73,9.45,7.05,23.04,10.56,40.75,10.56s31.24-3.52,40.59-10.56c9.36-7.04,15.74-16.95,19.17-29.73,3.42-12.78,5.13-27.72,5.13-44.82V24.01h-32.3v163.59Z"/>
  <polygon class="cls-1" points="882.72 143.23 934.03 24.01 902.34 24.01 868.54 110.33 831.41 24.01 799.72 24.01 849.82 140.52 798.81 268.49 830.51 268.49 864.92 176.43 904.75 268.49 936.45 268.49 882.72 143.23"/>
</svg>